<svg width="76" height="76" viewBox="0 0 76 76" fill="none" xmlns="http://www.w3.org/2000/svg">
<g id="Frame">
<g id="Group">
<path id="Vector" d="M12.3038 39.6668L12.3038 39.6668C12.8755 39.3315 13.617 39.5232 13.9551 40.0978C15.1396 42.1206 16.6001 44.1313 18.294 46.073L18.407 45.9743L18.294 46.073C22.3946 50.7722 30.3147 59.2526 38.0471 64.1753L38.1276 64.2266L38.2082 64.1753C45.9392 59.2526 53.8607 50.7722 57.96 46.073C61.2986 42.2455 63.6781 38.2207 65.0289 34.1054C66.4287 29.8435 66.7106 26.0808 65.8647 22.8468C65.018 19.6099 63.0452 16.9175 59.9638 14.7927C54.4231 10.9681 49.8047 11.0709 46.3202 12.4815C42.8475 13.8873 40.5219 16.5834 39.534 17.9142L39.5339 17.9143C39.2101 18.3514 38.6749 18.5763 38.1295 18.5763C37.5841 18.5763 37.0485 18.3514 36.724 17.9142C35.7368 16.5826 33.4122 13.8863 29.9396 12.4805C26.4553 11.0699 21.8363 10.9674 16.2929 14.7927C13.6558 16.6121 11.8302 18.8605 10.8318 21.5199C9.83374 24.1783 9.66634 27.2364 10.3272 30.6697C10.4527 31.324 10.0254 31.9565 9.3698 32.0833C8.71455 32.21 8.08318 31.7818 7.95634 31.1259C7.20335 27.2137 7.43265 23.6789 8.60324 20.6021C9.77358 17.5261 11.8883 14.8986 14.9215 12.8057C20.9322 8.65905 26.027 8.57916 29.9518 9.92195C33.8864 11.2681 36.6642 14.0509 38.0141 15.6586L38.129 15.7954L38.2439 15.6586C39.5932 14.0523 42.3706 11.2694 46.305 9.92297C50.2296 8.57984 55.3245 8.65905 61.3351 12.8057L61.4203 12.6823L61.3351 12.8058C64.8682 15.2429 67.147 18.3633 68.1537 22.0642C69.1611 25.7673 68.8984 30.0648 67.3238 34.8587L67.3238 34.8588C65.8748 39.2774 63.3387 43.584 59.7818 47.6604L59.8949 47.759L59.7818 47.6604C55.4558 52.6202 46.9786 61.674 38.7568 66.6797C38.5648 66.7955 38.3462 66.8546 38.129 66.8546C37.912 66.8546 37.6947 66.7956 37.5012 66.6783C29.2794 61.6713 20.8022 52.6174 16.4762 47.659C14.6822 45.6026 13.1326 43.4686 11.8729 41.3196C11.536 40.7436 11.7293 40.0035 12.3038 39.6668Z" fill="#28574E" stroke="#F9F9F9" stroke-width="0.3"/>
<path id="Vector_2" d="M20.0962 36.0955L24.0101 26.8292L24.19 26.4033L24.2944 26.8537L29.1177 47.6599L20.0962 36.0955ZM20.0962 36.0955C19.9066 36.5425 19.4681 36.8333 18.9844 36.8333H8.46652C7.80022 36.8333 7.25938 36.2925 7.25938 35.6262C7.25938 34.9599 7.80022 34.419 8.46652 34.419H18.0846H18.1841L18.2228 34.3274L23.4138 22.0372M20.0962 36.0955L23.4138 22.0372M23.4138 22.0372C23.4138 22.0372 23.4138 22.0372 23.4138 22.0371M23.4138 22.0372L23.4138 22.0371M23.4138 22.0371C23.6189 21.5532 24.1082 21.2503 24.6268 21.3042L24.6295 21.3044C25.151 21.3491 25.5842 21.7245 25.7012 22.2348L25.7013 22.2352L30.241 41.8188L30.532 41.8237L34.5125 26.9453L34.5125 26.9452C34.6551 26.4111 35.0977 26.0524 35.6944 26.0495M23.4138 22.0371L35.6944 26.0495M35.6944 26.0495C36.2452 26.0561 36.7216 26.4359 36.852 26.9731L38.68 34.5296L38.7078 34.6443H38.8258H47.483C48.1506 34.6443 48.6902 35.1851 48.6902 35.8515C48.6902 36.5179 48.1506 37.0586 47.483 37.0586H37.7564C37.1988 37.0586 36.7146 36.6773 36.583 36.135L35.7565 32.7192L35.4658 32.7157L31.4582 47.6999L31.458 47.7005C31.3194 48.2272 30.8406 48.5943 30.2948 48.5943H30.2948H30.2947H30.2947H30.2946H30.2946H30.2946H30.2945H30.2945H30.2944H30.2944H30.2944H30.2943H30.2943H30.2942H30.2942H30.2942H30.2941H30.2941H30.294H30.294H30.294H30.2939H30.2939H30.2938H30.2938H30.2938H30.2937H30.2937H30.2936H30.2936H30.2936H30.2935H30.2935H30.2934H30.2934H30.2934H30.2933H30.2933H30.2932H30.2932H30.2931H30.2931H30.2931H30.293H30.293H30.2929H30.2929H30.2929H30.2928H30.2928H30.2927H30.2927H30.2927H30.2926H30.2926H30.2925H30.2925H30.2924H30.2924H30.2924H30.2923H30.2923H30.2922H30.2922H30.2922H30.2921H30.2921H30.292H30.292H30.2919H30.2919H30.2919H30.2918H30.2918H30.2917H30.2917H30.2917H30.2916H30.2916H30.2915H30.2915H30.2914H30.2914H30.2914H30.2913H30.2913H30.2912H30.2912H30.2911H30.2911H30.2911H30.291H30.291H30.2909H30.2909H30.2909H30.2908H30.2908H30.2907H30.2907H30.2906H30.2906H30.2906H30.2905H30.2905H30.2904H30.2904H30.2903H30.2903H30.2903H30.2902H30.2902H30.2901H30.2901H30.29H30.29H30.29H30.2899H30.2899H30.2898H30.2898H30.2897H30.2897H30.2897H30.2896H30.2896H30.2895H30.2895H30.2894H30.2894H30.2894H30.2893H30.2893H30.2892H30.2892H30.2891H30.2891H30.289H30.289H30.289H30.2889H30.2889H30.2888H30.2888H30.2887H30.2887H30.2887H30.2886H30.2886H30.2885H30.2885H30.2884H30.2884H30.2884H30.2883H30.2883H30.2882H30.2882H30.2881H30.2881H30.288H30.288H30.288H30.2879H30.2879H30.2878H30.2878H30.2877H30.2877H30.2876H30.2876H30.2876H30.2875H30.2875H30.2874H30.2874H30.2873H30.2873H30.2872H30.2872H30.2872H30.2871H30.2871H30.287H30.287H30.2869H30.2869H30.2868H30.2868H30.2868H30.2867H30.2867H30.2866H30.2866H30.2865H30.2865H30.2864H30.2864H30.2864H30.2863H30.2863H30.2862H30.2862H30.2861H30.2861H30.286H30.286H30.286H30.2859H30.2859H30.2858H30.2858H30.2857H30.2857H30.2856H30.2856H30.2855H30.2855H30.2855H30.2854H30.2854H30.2853H30.2853H30.2852H30.2852H30.2851H30.2851H30.2851H30.285H30.285H30.2849H30.2849H30.2848H30.2848H30.2847H30.2847H30.2846H30.2846H30.2846H30.2845H30.2845H30.2844H30.2844H30.2843H30.2843H30.2842H30.2842H30.2841H30.2841H30.2841H30.284H30.284H30.2839H30.2839H30.2838H30.2838H30.2837H30.2837H30.2836H30.2836H30.2836H30.2835H30.2835H30.2834H30.2834H30.2833H30.2833H30.2832H30.2832H30.2831H30.2831H30.283H30.283H30.283H30.2829H30.2829H30.2828H30.2828H30.2827H30.2827H30.2826H30.2826H30.2825H30.2825H30.2824H30.2824H30.2824H30.2823H30.2823H30.2822H30.2822H30.2821H30.2821H30.282H30.282H30.2819H30.2819H30.2818H30.2818H30.2818H30.2817H30.2817H30.2816H30.2816H30.2815H30.2815H30.2814H30.2814H30.2813H30.2813H30.2812H30.2812H30.2811H30.2811H30.2811H30.281H30.281H30.2809H30.2809H30.2808H30.2808H30.2807H30.2807H30.2806H30.2806H30.2805H30.2805H30.2805H30.2804H30.2804H30.2803H30.2803H30.2802H30.2802H30.2801H30.2801H30.28H30.28H30.2799H30.2799H30.2798H30.2798H30.2797H30.2797H30.2797H30.2796H30.2796H30.2795H30.2795H30.2794H30.2794H30.2793H30.2793H30.2792H30.2792H30.2791H30.2791H30.279H30.279H30.279H30.2789H30.2789H30.2788H30.2788H30.2787H30.2787H30.2786H30.2786H30.2785H30.2785H30.2784H30.2784H30.2783H30.2783H30.2782H30.2782H30.2782H30.2781H30.2781H30.278H30.278H30.2779H30.2779H30.2778H30.2778H30.2777H30.2777H30.2776H30.2776H30.2775H30.2775H30.2774H30.2774H30.2773H30.2773H30.2773H30.2772H30.2772H30.2771H30.2771H30.277H30.277H30.2769H30.2769H30.2768H30.2768H30.2767H30.2767H30.2766H30.2766H30.2765H30.2765H30.2764H30.2764H30.2764H30.2763H30.2763H30.2762H30.2762H30.2761H30.2761H30.276H30.276H30.2759H30.2759H30.2758H30.2758H30.2757H30.2757H30.2756H30.2756H30.2755H30.2755H30.2755H30.2754H30.2754H30.2753H30.2753H30.2752H30.2752H30.2751H30.2751H30.275H30.275H30.2749H30.2749H30.2748H30.2748H30.2747H30.2747H30.2746H30.2746H30.2745H30.2745H30.2745H30.2744H30.2744H30.2743H30.2743H30.2742H30.2742H30.2741H30.2741H30.274H30.274H30.2739H30.2739H30.2738H30.2738H30.2737H30.2737H30.2736H30.2736H30.2735H30.2735H30.2735H30.2734H30.2734H30.2733H30.2733H30.2732H30.2732H30.2731H30.2731C29.7194 48.5841 29.2432 48.1991 29.1177 47.66L35.6944 26.0495Z" fill="#1E232F" stroke="#F9F9F9" stroke-width="0.3"/>
</g>
</g>
</svg>
