<svg width="80" height="79" viewBox="0 0 80 79" fill="none" xmlns="http://www.w3.org/2000/svg">
<g id="Frame">
<g id="Group">
<path id="Vector" d="M68.5946 34.4824C67.8162 33.9059 67.3946 32.9665 67.5243 32.027C67.6757 30.8633 67.7081 29.8598 67.6324 29.0698C67.3189 25.9312 65.027 19.8994 60.2054 16.6861C60.1838 15.8961 59.9568 14.3267 58.6054 12.5652C55.7838 8.92484 49.8811 6.54416 41.0595 5.49795C34.1189 4.6866 28.3892 7.44092 23.7946 11.5724C23.3405 9.97106 22.4432 8.70065 21.2 7.91065C19.3189 6.71497 16.8757 6.67227 14.3135 7.80389C11.8703 8.88214 9.58919 10.9105 7.89189 13.5154C4.31351 19.0027 4.45405 25.4188 8.21622 27.8208C8.51892 28.0129 8.84324 28.1624 9.17838 28.3012C9.21081 28.3119 9.23243 28.3332 9.26486 28.3439C9.28649 28.3546 9.30811 28.3439 9.31892 28.3546C10 28.6001 10.7243 28.7389 11.5027 28.7389C11.8378 28.7389 12.1946 28.7069 12.5405 28.6535C10.4541 35.8596 11.7081 43.5888 16.2162 49.5031C18.3459 52.3108 21.0703 54.574 24.3027 56.2501C24.2378 58.3532 23.7189 66.9898 19.827 72.4131C19.5676 72.7761 19.6541 73.2778 20.0216 73.534C20.1622 73.6301 20.3243 73.6835 20.4865 73.6835C20.7459 73.6835 20.9946 73.566 21.1459 73.3419C25.4919 67.2887 25.8919 57.9369 25.9351 56.1006C26.973 54.9797 31.0378 50.1009 30.2486 42.6066C29.8919 39.2011 30.7243 36.4574 32.6595 34.6746C34.4432 33.0305 37.027 32.3579 39.7405 32.817C41.773 33.1586 42.8108 34.6532 43.7297 35.9663C44.4432 36.9912 45.1243 37.9627 46.2054 38.0908C46.9081 38.1655 47.6324 37.8559 48.4108 37.1406C49.373 36.2652 49.9784 34.9948 50.1189 33.575C50.3135 31.6534 50.9946 28.2478 53.427 26.9667C53.6108 26.8706 53.7838 26.7532 53.9568 26.6358C53.9568 26.7852 54 26.9454 54.0865 27.0735C54.3027 27.3831 54.5297 27.682 54.7676 27.9702C54.9297 28.1731 55.1676 28.2692 55.4054 28.2692C55.5784 28.2692 55.7622 28.2158 55.9135 28.0984C56.2703 27.8208 56.3243 27.319 56.0432 26.9667C55.827 26.6998 55.6216 26.4329 55.4162 26.1447C55.2757 25.9525 55.0703 25.8458 54.8432 25.8138C55.654 24.8529 56.0541 23.5825 55.9676 22.0879C55.8595 20.209 57.0919 18.5863 59.0378 18.0525C59.1027 18.0312 59.1676 18.0098 59.2432 17.9885C63.3946 20.7535 65.6865 26.1661 65.9892 29.23C66.0432 29.8171 66.0216 30.5751 65.9351 31.4398C65.7838 31.4825 65.6432 31.5252 65.4919 31.5573C65.0486 31.6427 64.7568 32.059 64.8432 32.4967C64.9189 32.8811 65.2541 33.1479 65.6432 33.1479C65.6973 33.1479 65.7405 33.1479 65.7946 33.1373C65.8486 33.1266 65.8919 33.1052 65.9459 33.0946C66.1405 34.1515 66.7243 35.1123 67.6216 35.7742C72.173 39.1156 73.1027 40.8344 73.0811 41.6885C73.0595 42.3717 72.3784 42.8735 71.3189 43.5674L71.027 43.7596C69.9243 44.4962 69.2973 45.3289 69.1892 46.215C69.0595 47.2185 69.6324 47.8911 69.6865 47.9551C70.1946 48.5316 70.4216 49.0547 70.3568 49.4924C70.2703 50.0902 69.654 50.5493 69.2973 50.7735C68.9622 50.987 68.7567 51.3393 68.7567 51.7236C68.7459 52.1079 68.9405 52.4709 69.2757 52.6951C69.6108 52.9193 69.8703 53.357 69.8378 53.6239C69.8162 53.7733 69.6649 53.9015 69.373 54.0082C68.6486 54.2751 68.1081 54.7662 67.8162 55.4174C67.2973 56.5597 67.6865 57.8621 67.8162 58.2465C68.054 60.104 67.6973 61.4171 66.7351 62.1538C66.3135 62.4847 65.773 62.6769 65.1784 62.805C65.0595 62.6235 64.8757 62.4847 64.6486 62.4313C64.2595 62.3566 63.8919 62.5808 63.7513 62.9331C62.0757 62.9438 57.2216 61.2997 56.6054 61.1075C56.5946 61.1075 56.5946 61.0969 56.5946 61.0969C54.3892 60.3496 49.827 58.3746 46.9838 55.9085C47.1135 55.4815 46.8757 55.0438 46.4432 54.905C46.2811 54.8623 46.1189 54.8729 45.9676 54.9263C45.1243 53.9869 44.5622 52.9833 44.5189 51.9692C44.4973 51.5315 44.1189 51.1685 43.6649 51.2112C43.2108 51.2325 42.8649 51.6062 42.8865 52.0546C43.0919 56.1327 48.6595 59.3994 52.4973 61.1716C52.4649 61.1823 52.4324 61.1929 52.4 61.2036C49.7513 62.3886 47.4811 66.0184 45.2432 72.6052C45.1027 73.0216 45.3297 73.4806 45.7513 73.6194C45.8378 73.6515 45.9243 73.6621 46.0108 73.6621C46.3459 73.6621 46.6703 73.4486 46.7784 73.1177C48.8324 67.0646 50.8865 63.6483 53.0595 62.6662C54.0324 62.2285 54.9946 62.3139 55.9676 62.6021C56 62.6128 56.0216 62.6235 56.0324 62.6235H56.0432C56.6054 62.7943 62.0973 64.6519 64.2919 64.5238H64.3135C64.3568 64.5238 64.3892 64.5131 64.4324 64.5024C65.654 64.417 66.8108 64.0967 67.7081 63.4028C69.1676 62.2819 69.7297 60.435 69.3838 57.9262C69.373 57.8621 69.3622 57.7981 69.3405 57.7447C69.2757 57.5632 68.6919 55.9512 69.9135 55.4921C71.0919 55.0438 71.3622 54.2324 71.4054 53.7947C71.4919 53.0261 71.1135 52.2788 70.6162 51.7663C71.2 51.2966 71.773 50.624 71.9135 49.7166C72.054 48.7878 71.6973 47.8377 70.8649 46.8875C70.8649 46.8875 70.7243 46.6847 70.7568 46.4071C70.8108 46.0015 71.2108 45.5317 71.8919 45.0834L72.173 44.9019C73.2649 44.1866 74.6162 43.3005 74.6595 41.7312C74.7568 39.8523 72.8757 37.6211 68.5946 34.4824ZM9.25405 14.3801C10.7892 12.0315 12.8216 10.2166 14.973 9.26646C17.0162 8.3697 18.9081 8.3697 20.3135 9.26646C20.3351 9.27714 20.3568 9.29849 20.3784 9.30916C17.0486 12.4478 14 16.4298 11.3189 21.1698C10.3676 22.8459 9.6 24.5967 9.0054 26.3902C6.08649 24.4152 6.18378 19.0667 9.25405 14.3801ZM10.5081 27.0094C11.0703 25.2693 11.8162 23.5719 12.7351 21.9492C15.3405 17.3266 18.2919 13.4727 21.5135 10.4408C21.9568 11.1027 22.2595 11.9247 22.4 12.8642C19.2973 15.9921 16.7676 19.6966 14.8 23.1875C14.1189 24.3939 13.5568 25.6323 13.0919 26.892C12.3459 27.0948 11.427 27.2016 10.5081 27.0094ZM54.3568 22.1734C54.4216 23.2623 54.173 24.7355 52.6703 25.5362C49.5676 27.1696 48.7243 31.1729 48.5081 33.4042C48.4 34.429 47.9784 35.3365 47.3081 35.945C46.7568 36.4467 46.4757 36.4894 46.3892 36.4681C46.0432 36.4254 45.5243 35.6888 45.0703 35.0375C44.0757 33.6177 42.7243 31.6747 40.0108 31.2156C36.7892 30.6712 33.6973 31.4932 31.5459 33.4896C29.9243 34.9842 28.1081 37.8025 28.627 42.7561C29.2865 49.0654 26.0757 53.4317 24.9405 54.7555C21.9676 53.1969 19.4703 51.0938 17.5135 48.5209C12.2378 41.5817 11.7405 31.9523 16.2378 23.9775C18.1838 20.54 20.6811 16.8782 23.7405 13.8356C23.8162 13.7823 23.8919 13.7182 23.9459 13.6328C27.9135 9.76822 32.8108 6.93916 38.6595 6.93916C39.3838 6.93916 40.1189 6.98187 40.8649 7.06727C51.2216 8.29497 55.4919 11.2094 57.2649 13.4513C58.3027 14.7538 58.5405 15.8961 58.5838 16.5046C55.9459 17.2519 54.2054 19.5685 54.3568 22.1734Z" fill="#28574E"/>
<path id="Vector_2" d="M62.8324 45.6385L61.9568 45.0621C61.5784 44.8165 61.0811 44.9233 60.8324 45.2862C60.5838 45.6599 60.6811 46.151 61.0595 46.3965L61.9351 46.973C62.0757 47.0691 62.227 47.1118 62.3892 47.1118C62.6487 47.1118 62.9081 46.9837 63.0703 46.7488C63.3081 46.3858 63.2 45.8841 62.8324 45.6385Z" fill="#1E232F"/>
<path id="Vector_3" d="M60.6913 52.5992L61.5021 53.1329C61.5129 53.1329 61.5778 53.1863 61.5886 53.1863C61.7183 53.261 61.8589 53.3038 61.9886 53.3038C62.2589 53.3038 62.5075 53.165 62.6697 52.9194C62.9075 52.5458 62.7778 52.044 62.3994 51.7985L61.5886 51.2647C61.2102 51.0192 60.7129 51.1259 60.4643 51.4889C60.2156 51.8625 60.3237 52.3643 60.6913 52.5992Z" fill="#1E232F"/>
<path id="Vector_4" d="M65.037 49.2042C65.1883 49.439 65.4586 49.5671 65.7181 49.5671C65.8694 49.5671 66.0208 49.5244 66.1613 49.439C66.5397 49.1935 66.6478 48.7024 66.3992 48.3288C66.1505 47.9551 65.837 47.6349 65.4586 47.3786C65.091 47.1224 64.5829 47.2078 64.3235 47.5815C64.064 47.9444 64.1613 48.4462 64.5289 48.7024C64.7343 48.8198 64.8965 49.0013 65.037 49.2042Z" fill="#1E232F"/>
<path id="Vector_5" d="M48.8656 41.0054C48.4332 40.9307 48.0007 41.2083 47.9142 41.6353C47.871 41.8595 47.8494 42.0837 47.8494 42.3079C47.8494 42.5321 47.871 42.7562 47.9142 42.9698C47.9899 43.3541 48.3251 43.621 48.7142 43.621C48.7683 43.621 48.8223 43.621 48.8656 43.6103C49.3088 43.5249 49.6007 43.1085 49.5142 42.6708C49.4926 42.5534 49.4818 42.436 49.4818 42.3079C49.4818 42.1904 49.4926 42.0623 49.5142 41.9449C49.5899 41.5072 49.3088 41.0908 48.8656 41.0054Z" fill="#1E232F"/>
<path id="Vector_6" d="M64.3022 52.898C64.4643 53.1222 64.713 53.2503 64.9724 53.2503C65.1346 53.2503 65.286 53.2076 65.4265 53.1115C65.8049 52.8553 66.1184 52.535 66.3887 52.14L66.3995 52.1186C66.6373 51.745 66.5184 51.2646 66.14 51.0297C65.7616 50.7949 65.2643 50.9016 65.0157 51.2753C64.8751 51.4781 64.7022 51.6489 64.5076 51.7877C64.1508 52.0332 64.0535 52.535 64.3022 52.898Z" fill="#1E232F"/>
<path id="Vector_7" d="M50.2371 45.7558L51.1127 46.3323C51.2533 46.4284 51.4046 46.4711 51.5668 46.4711C51.8262 46.4711 52.0857 46.343 52.2479 46.1081C52.4965 45.7345 52.3992 45.2434 52.0208 44.9979L51.1343 44.4107C50.756 44.1652 50.2587 44.2719 50.01 44.6349C49.7614 45.0085 49.8587 45.5103 50.2371 45.7558Z" fill="#1E232F"/>
<path id="Vector_8" d="M57.2108 50.3145L58.0865 50.891C58.227 50.9871 58.3784 51.0298 58.5405 51.0298C58.8 51.0298 59.0595 50.9016 59.2216 50.6668C59.4703 50.2931 59.373 49.8021 58.9946 49.5565L58.1189 48.98C57.7405 48.7345 57.2432 48.8412 56.9946 49.2042C56.7351 49.5779 56.8324 50.0689 57.2108 50.3145Z" fill="#1E232F"/>
<path id="Vector_9" d="M54.9838 40.5035C54.6054 40.2579 54.1081 40.3647 53.8595 40.7277C53.6108 41.1013 53.7081 41.5924 54.0865 41.8379L54.9622 42.4144C55.1027 42.5105 55.254 42.5532 55.4162 42.5532C55.6757 42.5532 55.9351 42.4251 56.0973 42.1902C56.3459 41.8166 56.2486 41.3255 55.8703 41.08L54.9838 40.5035Z" fill="#1E232F"/>
<path id="Vector_10" d="M51.9559 38.881C51.5018 38.8063 51.0478 38.8276 50.6045 38.9237C50.1613 39.0198 49.891 39.4468 49.9883 39.8845C50.0748 40.2582 50.4099 40.5144 50.7775 40.5144C50.8315 40.5144 50.8964 40.5037 50.9505 40.493C51.1883 40.4396 51.437 40.429 51.6748 40.4717C52.118 40.5357 52.5397 40.2475 52.6153 39.8098C52.691 39.3614 52.3991 38.9557 51.9559 38.881Z" fill="#1E232F"/>
<path id="Vector_11" d="M53.4924 46.9195C53.2438 47.2932 53.3411 47.7843 53.7195 48.0298L54.5951 48.5956C54.7357 48.6917 54.887 48.7344 55.0492 48.7344C55.3087 48.7344 55.5681 48.6063 55.7303 48.3714C55.9789 47.9978 55.8816 47.5067 55.5033 47.2612L54.6276 46.6954C54.2492 46.4498 53.7411 46.5566 53.4924 46.9195Z" fill="#1E232F"/>
<path id="Vector_12" d="M58.4761 42.788C58.0978 42.5424 57.6005 42.6385 57.3518 43.0122C57.1032 43.3858 57.2005 43.8769 57.5788 44.1224L58.4545 44.6989C58.5951 44.795 58.7464 44.8377 58.9086 44.8377C59.168 44.8377 59.4275 44.7096 59.5897 44.4747C59.8383 44.1011 59.741 43.61 59.3626 43.3644L58.4761 42.788Z" fill="#1E232F"/>
<path id="Vector_13" d="M55.9236 56.0044C55.5236 55.8122 55.0371 55.9724 54.8317 56.378C54.6371 56.773 54.7993 57.2534 55.2101 57.4563L56.0966 57.8833C56.2155 57.9367 56.3344 57.9687 56.4533 57.9687C56.756 57.9687 57.0479 57.7979 57.1885 57.5203C57.3831 57.1253 57.2209 56.6449 56.8101 56.4421L55.9236 56.0044Z" fill="#1E232F"/>
<path id="Vector_14" d="M52.367 54.3071C51.967 54.115 51.4805 54.2751 51.2751 54.6808C51.0805 55.0758 51.2426 55.5562 51.6534 55.759L52.5399 56.186C52.6589 56.2394 52.7778 56.2714 52.8967 56.2714C53.1994 56.2714 53.4913 56.1006 53.6318 55.8231C53.8264 55.4281 53.6643 54.9477 53.2534 54.7448L52.367 54.3071Z" fill="#1E232F"/>
<path id="Vector_15" d="M58.3884 58.0759C58.1939 58.4709 58.3668 58.9513 58.7668 59.1541L59.6533 59.5812C59.7722 59.6345 59.8912 59.6666 60.0101 59.6666C60.3128 59.6666 60.6047 59.4958 60.7452 59.2182C60.9398 58.8232 60.7668 58.3428 60.3668 58.1399L59.4803 57.7129C59.0695 57.5101 58.583 57.6809 58.3884 58.0759Z" fill="#1E232F"/>
<path id="Vector_16" d="M47.5351 53.9762C47.6108 54.4139 48.0432 54.7021 48.4865 54.6274C48.7027 54.5847 48.9405 54.5847 49.1676 54.6274C49.2216 54.6381 49.2757 54.6381 49.3189 54.6381C49.6973 54.6381 50.0432 54.3712 50.1189 53.9868C50.2054 53.5491 49.9135 53.1328 49.4703 53.0474C49.0378 52.962 48.6054 52.962 48.1946 53.0367C47.7514 53.1221 47.4595 53.5385 47.5351 53.9762Z" fill="#1E232F"/>
<path id="Vector_17" d="M63.3946 59.5809L63.027 59.3994C62.627 59.2072 62.1405 59.3674 61.9351 59.7731C61.7405 60.1681 61.9027 60.6485 62.3135 60.8513L62.6811 61.0328C62.8 61.0862 62.9189 61.1609 63.027 61.2463C63.1784 61.3637 63.3514 61.4171 63.5243 61.4171C63.7622 61.4171 64.0108 61.3104 64.173 61.1075C64.4432 60.7552 64.3784 60.2535 64.0324 59.9759C63.827 59.8158 63.6216 59.6877 63.3946 59.5809Z" fill="#1E232F"/>
<path id="Vector_18" d="M62.6054 31.4612C62.2919 31.3865 61.9676 31.3011 61.6541 31.1837C61.2324 31.0342 60.7676 31.2477 60.6162 31.6747C60.4649 32.0911 60.6811 32.5501 61.1135 32.6996C61.4919 32.8277 61.8703 32.9451 62.2487 33.0306C62.3135 33.0412 62.3676 33.0519 62.4324 33.0519C62.8 33.0519 63.1351 32.7957 63.2216 32.4327C63.3189 31.995 63.0487 31.5573 62.6054 31.4612Z" fill="#1E232F"/>
<path id="Vector_19" d="M58.1946 29.1553C57.8487 28.867 57.3405 28.9097 57.0487 29.2513C56.7568 29.593 56.8 30.0947 57.1459 30.383C57.4378 30.6285 57.7405 30.8634 58.0432 31.0769C58.1838 31.1836 58.3568 31.2263 58.5189 31.2263C58.7676 31.2263 59.0162 31.1089 59.1784 30.8954C59.4378 30.5324 59.3622 30.0307 58.9946 29.7744C58.7351 29.5823 58.4649 29.3794 58.1946 29.1553Z" fill="#1E232F"/>
</g>
</g>
</svg>
