<svg width="74" height="74" viewBox="0 0 74 74" fill="none" xmlns="http://www.w3.org/2000/svg">
<g id="Frame">
<g id="Group">
<g id="Vector">
<mask id="path-1-inside-1_1_298" fill="white">
<path d="M63.2746 19.4342C66.2497 19.4342 68.6697 17.0142 68.6697 14.0403C68.6697 11.0664 66.2497 8.64642 63.2746 8.64642C60.3007 8.64642 57.8807 11.0664 57.8807 14.0403C57.8807 14.9387 58.1224 15.7735 58.5132 16.5193L53.7876 20.4564C50.305 16.9622 45.4892 14.7954 40.1774 14.7954C39.8397 14.7954 39.5114 14.8289 39.1784 14.8462L38.6326 9.98188C39.9843 9.37023 40.9312 8.01626 40.9312 6.43913C40.9312 4.29313 39.1842 2.54604 37.0382 2.54604C34.8922 2.54604 33.1451 4.29313 33.1451 6.43913C33.1451 8.35504 34.5395 9.94373 36.3652 10.264L36.9075 15.0948C34.3822 15.5307 32.027 16.4557 29.9388 17.7773L24.3934 10.0409C25.2583 9.08348 25.8006 7.82779 25.8006 6.43913C25.8006 3.46526 23.3805 1.04523 20.4067 1.04523C17.4328 1.04523 15.0127 3.46526 15.0127 6.43913C15.0127 9.41417 17.4328 11.8342 20.4067 11.8342C21.1675 11.8342 21.889 11.6723 22.5469 11.3867L28.0761 19.1012C24.383 22.1017 21.8381 26.4446 21.1547 31.3771L14.726 31.1887C14.4716 29.9792 13.8392 28.8947 12.8656 28.1084C11.9082 27.3337 10.7046 26.9094 9.47662 26.9094C7.83822 26.9094 6.3085 27.639 5.27943 28.912C4.37409 30.0336 3.959 31.4384 4.11047 32.8722C4.26193 34.3048 4.96262 35.5928 6.08303 36.4982C7.0404 37.2729 8.24406 37.6972 9.472 37.6972C11.1092 37.6972 12.639 36.9676 13.6692 35.6946C14.1999 35.0367 14.5398 34.277 14.7179 33.4757L20.9686 33.6584C20.9663 33.781 20.9501 33.9001 20.9501 34.0226C20.9501 39.161 22.9874 43.8242 26.2827 47.2767L23.7794 49.9662C23.2672 49.7176 22.6983 49.565 22.0913 49.565C19.9453 49.565 18.1982 51.312 18.1982 53.458C18.1982 55.604 19.9453 57.3511 22.0913 57.3511C24.2373 57.3511 25.9844 55.604 25.9844 53.458C25.9844 52.7516 25.7809 52.0971 25.4502 51.5248L27.9442 48.8458C31.2708 51.5953 35.5327 53.2499 40.1751 53.2499C40.7821 53.2499 41.381 53.2141 41.973 53.1586L43.4207 62.5346C42.1939 63.004 41.1579 63.9048 40.5393 65.1246C39.1957 67.7782 40.2618 71.0307 42.9154 72.3755C43.6669 72.7559 44.5087 72.957 45.347 72.957C47.3935 72.957 49.2389 71.8239 50.1639 69.9994C50.8149 68.7136 50.9259 67.2521 50.4761 65.882C50.0275 64.513 49.0724 63.4006 47.7867 62.7497C47.1311 62.4178 46.4084 62.2328 45.6777 62.1877L44.23 52.8105C50.9397 51.3629 56.3522 46.4061 58.4507 39.96L62.1461 40.922C62.2386 42.987 63.9348 44.644 66.0219 44.644C68.169 44.644 69.9161 42.8969 69.9161 40.7509C69.9161 38.6049 68.169 36.8578 66.0219 36.8578C64.6251 36.8578 63.4076 37.6035 62.7208 38.7112L59.03 37.7504C59.2682 36.5433 59.4 35.298 59.4 34.0226C59.4 29.5537 57.8541 25.4467 55.2873 22.178L59.9712 18.2757C60.8893 18.9902 62.0259 19.4342 63.2746 19.4342ZM35.4287 6.43798C35.4287 5.55113 36.1502 4.82963 37.037 4.82963C37.9238 4.82963 38.6453 5.55113 38.6453 6.43798C38.6453 7.32482 37.925 8.04632 37.0382 8.04632C36.1502 8.04632 35.4287 7.32482 35.4287 6.43798ZM17.2975 6.43798C17.2975 4.72326 18.6919 3.32882 20.4067 3.32882C22.1214 3.32882 23.5158 4.72326 23.5158 6.43798C23.5158 8.1527 22.1214 9.54829 20.4067 9.54829C18.6919 9.54829 17.2975 8.1527 17.2975 6.43798ZM11.8932 34.2562C10.8491 35.5477 8.81409 35.7651 7.52025 34.7199C6.8739 34.1972 6.47037 33.4549 6.3825 32.6294C6.29578 31.8026 6.53397 30.9933 7.05659 30.3469C7.64975 29.6127 8.53197 29.1918 9.47778 29.1918C10.1947 29.1918 10.8711 29.43 11.4295 29.8821C12.0759 30.4047 12.4794 31.147 12.5673 31.9726C12.654 32.8005 12.4147 33.611 11.8932 34.2562ZM48.3081 66.5919C48.5671 67.3816 48.5035 68.2245 48.1278 68.9645C47.5959 70.0179 46.531 70.67 45.3504 70.67C44.8613 70.67 44.3896 70.5578 43.9502 70.3347C42.4205 69.56 41.8065 67.6857 42.5812 66.1571C43.1131 65.1038 44.178 64.4517 45.3585 64.4517C45.8488 64.4517 46.3194 64.5638 46.7587 64.787C47.4999 65.1628 48.0503 65.8033 48.3081 66.5919ZM66.0253 39.1414C66.9133 39.1414 67.6348 39.8629 67.6348 40.7497C67.6348 41.6365 66.9133 42.358 66.0253 42.358C65.1385 42.358 64.417 41.6365 64.417 40.7497C64.417 39.8629 65.1385 39.1414 66.0253 39.1414ZM22.0925 55.0664C21.2056 55.0664 20.4841 54.3449 20.4841 53.458C20.4841 52.5712 21.2056 51.8497 22.0925 51.8497C22.9793 51.8497 23.7008 52.5712 23.7008 53.458C23.7008 54.3449 22.9805 55.0664 22.0925 55.0664ZM40.1774 50.964C30.8349 50.964 23.236 43.364 23.236 34.0215C23.236 24.679 30.836 17.0801 40.1774 17.0801C49.5187 17.0801 57.1188 24.679 57.1188 34.0215C57.1188 43.364 49.5187 50.964 40.1774 50.964ZM63.2746 10.93C64.9893 10.93 66.3849 12.3244 66.3849 14.0392C66.3849 15.7539 64.9893 17.1483 63.2746 17.1483C61.5599 17.1483 60.1655 15.7539 60.1655 14.0392C60.1655 12.3244 61.5599 10.93 63.2746 10.93Z"/>
</mask>
<path d="M63.2746 19.4342C66.2497 19.4342 68.6697 17.0142 68.6697 14.0403C68.6697 11.0664 66.2497 8.64642 63.2746 8.64642C60.3007 8.64642 57.8807 11.0664 57.8807 14.0403C57.8807 14.9387 58.1224 15.7735 58.5132 16.5193L53.7876 20.4564C50.305 16.9622 45.4892 14.7954 40.1774 14.7954C39.8397 14.7954 39.5114 14.8289 39.1784 14.8462L38.6326 9.98188C39.9843 9.37023 40.9312 8.01626 40.9312 6.43913C40.9312 4.29313 39.1842 2.54604 37.0382 2.54604C34.8922 2.54604 33.1451 4.29313 33.1451 6.43913C33.1451 8.35504 34.5395 9.94373 36.3652 10.264L36.9075 15.0948C34.3822 15.5307 32.027 16.4557 29.9388 17.7773L24.3934 10.0409C25.2583 9.08348 25.8006 7.82779 25.8006 6.43913C25.8006 3.46526 23.3805 1.04523 20.4067 1.04523C17.4328 1.04523 15.0127 3.46526 15.0127 6.43913C15.0127 9.41417 17.4328 11.8342 20.4067 11.8342C21.1675 11.8342 21.889 11.6723 22.5469 11.3867L28.0761 19.1012C24.383 22.1017 21.8381 26.4446 21.1547 31.3771L14.726 31.1887C14.4716 29.9792 13.8392 28.8947 12.8656 28.1084C11.9082 27.3337 10.7046 26.9094 9.47662 26.9094C7.83822 26.9094 6.3085 27.639 5.27943 28.912C4.37409 30.0336 3.959 31.4384 4.11047 32.8722C4.26193 34.3048 4.96262 35.5928 6.08303 36.4982C7.0404 37.2729 8.24406 37.6972 9.472 37.6972C11.1092 37.6972 12.639 36.9676 13.6692 35.6946C14.1999 35.0367 14.5398 34.277 14.7179 33.4757L20.9686 33.6584C20.9663 33.781 20.9501 33.9001 20.9501 34.0226C20.9501 39.161 22.9874 43.8242 26.2827 47.2767L23.7794 49.9662C23.2672 49.7176 22.6983 49.565 22.0913 49.565C19.9453 49.565 18.1982 51.312 18.1982 53.458C18.1982 55.604 19.9453 57.3511 22.0913 57.3511C24.2373 57.3511 25.9844 55.604 25.9844 53.458C25.9844 52.7516 25.7809 52.0971 25.4502 51.5248L27.9442 48.8458C31.2708 51.5953 35.5327 53.2499 40.1751 53.2499C40.7821 53.2499 41.381 53.2141 41.973 53.1586L43.4207 62.5346C42.1939 63.004 41.1579 63.9048 40.5393 65.1246C39.1957 67.7782 40.2618 71.0307 42.9154 72.3755C43.6669 72.7559 44.5087 72.957 45.347 72.957C47.3935 72.957 49.2389 71.8239 50.1639 69.9994C50.8149 68.7136 50.9259 67.2521 50.4761 65.882C50.0275 64.513 49.0724 63.4006 47.7867 62.7497C47.1311 62.4178 46.4084 62.2328 45.6777 62.1877L44.23 52.8105C50.9397 51.3629 56.3522 46.4061 58.4507 39.96L62.1461 40.922C62.2386 42.987 63.9348 44.644 66.0219 44.644C68.169 44.644 69.9161 42.8969 69.9161 40.7509C69.9161 38.6049 68.169 36.8578 66.0219 36.8578C64.6251 36.8578 63.4076 37.6035 62.7208 38.7112L59.03 37.7504C59.2682 36.5433 59.4 35.298 59.4 34.0226C59.4 29.5537 57.8541 25.4467 55.2873 22.178L59.9712 18.2757C60.8893 18.9902 62.0259 19.4342 63.2746 19.4342ZM35.4287 6.43798C35.4287 5.55113 36.1502 4.82963 37.037 4.82963C37.9238 4.82963 38.6453 5.55113 38.6453 6.43798C38.6453 7.32482 37.925 8.04632 37.0382 8.04632C36.1502 8.04632 35.4287 7.32482 35.4287 6.43798ZM17.2975 6.43798C17.2975 4.72326 18.6919 3.32882 20.4067 3.32882C22.1214 3.32882 23.5158 4.72326 23.5158 6.43798C23.5158 8.1527 22.1214 9.54829 20.4067 9.54829C18.6919 9.54829 17.2975 8.1527 17.2975 6.43798ZM11.8932 34.2562C10.8491 35.5477 8.81409 35.7651 7.52025 34.7199C6.8739 34.1972 6.47037 33.4549 6.3825 32.6294C6.29578 31.8026 6.53397 30.9933 7.05659 30.3469C7.64975 29.6127 8.53197 29.1918 9.47778 29.1918C10.1947 29.1918 10.8711 29.43 11.4295 29.8821C12.0759 30.4047 12.4794 31.147 12.5673 31.9726C12.654 32.8005 12.4147 33.611 11.8932 34.2562ZM48.3081 66.5919C48.5671 67.3816 48.5035 68.2245 48.1278 68.9645C47.5959 70.0179 46.531 70.67 45.3504 70.67C44.8613 70.67 44.3896 70.5578 43.9502 70.3347C42.4205 69.56 41.8065 67.6857 42.5812 66.1571C43.1131 65.1038 44.178 64.4517 45.3585 64.4517C45.8488 64.4517 46.3194 64.5638 46.7587 64.787C47.4999 65.1628 48.0503 65.8033 48.3081 66.5919ZM66.0253 39.1414C66.9133 39.1414 67.6348 39.8629 67.6348 40.7497C67.6348 41.6365 66.9133 42.358 66.0253 42.358C65.1385 42.358 64.417 41.6365 64.417 40.7497C64.417 39.8629 65.1385 39.1414 66.0253 39.1414ZM22.0925 55.0664C21.2056 55.0664 20.4841 54.3449 20.4841 53.458C20.4841 52.5712 21.2056 51.8497 22.0925 51.8497C22.9793 51.8497 23.7008 52.5712 23.7008 53.458C23.7008 54.3449 22.9805 55.0664 22.0925 55.0664ZM40.1774 50.964C30.8349 50.964 23.236 43.364 23.236 34.0215C23.236 24.679 30.836 17.0801 40.1774 17.0801C49.5187 17.0801 57.1188 24.679 57.1188 34.0215C57.1188 43.364 49.5187 50.964 40.1774 50.964ZM63.2746 10.93C64.9893 10.93 66.3849 12.3244 66.3849 14.0392C66.3849 15.7539 64.9893 17.1483 63.2746 17.1483C61.5599 17.1483 60.1655 15.7539 60.1655 14.0392C60.1655 12.3244 61.5599 10.93 63.2746 10.93Z" fill="#28574E" stroke="#F9F9F9" stroke-width="0.8" mask="url(#path-1-inside-1_1_298)"/>
</g>
<path id="Vector_2" d="M36.1574 23.8326C39.0208 23.8326 41.3513 26.1631 41.3513 29.0265C41.3513 31.8911 39.0208 34.2215 36.1574 34.2215C33.294 34.2215 30.9635 31.8911 30.9635 29.0265C30.9635 26.1631 33.294 23.8326 36.1574 23.8326ZM36.1574 25.7173C34.3322 25.7173 32.8483 27.2013 32.8483 29.0265C32.8483 30.8516 34.3321 32.3368 36.1574 32.3368C37.9827 32.3368 39.4666 30.8516 39.4666 29.0265C39.4666 27.2013 37.9826 25.7173 36.1574 25.7173Z" fill="#1E232F" stroke="#F9F9F9" stroke-width="0.4"/>
<path id="Vector_3" d="M49.6917 38.9206C47.6562 38.9206 45.9986 37.2631 45.9986 35.2263C45.9986 33.1908 47.6562 31.5333 49.6917 31.5333C51.7273 31.5333 53.3848 33.1908 53.3848 35.2263C53.3848 37.2631 51.7272 38.9206 49.6917 38.9206ZM49.6929 37.0358C50.6903 37.0358 51.5012 36.2247 51.5012 35.2263C51.5012 34.229 50.6902 33.418 49.6929 33.418C48.6956 33.418 47.8846 34.229 47.8846 35.2263C47.8846 36.2247 48.6955 37.0358 49.6929 37.0358Z" fill="#1E232F" stroke="#F9F9F9" stroke-width="0.4"/>
<path id="Vector_4" d="M43.7149 42.8249V42.825C43.7149 44.8605 42.0574 46.5181 40.0218 46.5181C37.9863 46.5181 36.3287 44.8605 36.3287 42.825C36.3287 40.7894 37.9863 39.1319 40.0218 39.1319C42.0586 39.1319 43.716 40.7895 43.7149 42.8249ZM38.2135 42.8261C38.2135 43.8234 39.0245 44.6345 40.0218 44.6345L41.6302 42.8261H41.8302C41.8302 42.826 41.8302 42.826 41.8302 42.8259C41.83 41.8287 41.019 41.0178 40.0218 41.0178C39.0245 41.0178 38.2135 41.8288 38.2135 42.8261Z" fill="#1E232F" stroke="#F9F9F9" stroke-width="0.4"/>
</g>
</g>
</svg>
