<svg width="68" height="68" viewBox="0 0 68 68" fill="none" xmlns="http://www.w3.org/2000/svg">
<g id="Group">
<path id="Vector" d="M0 -7.62939e-06H68V68H0V-7.62939e-06Z" fill="#F9F9F9"/>
<g id="Group_2">
<path id="Vector_2" d="M50.0039 38.1504V45.5547C50.0039 50.3041 46.1537 54.1543 41.4043 54.1543H9.99414L1.99219 62.1562V30.4473C1.99219 25.6979 5.84242 21.8476 10.5918 21.8476H17.9961V29.5508C17.9961 34.3001 21.8463 38.1504 26.5957 38.1504H50.0039Z" stroke="#1E232F" stroke-width="2" stroke-miterlimit="10" stroke-linecap="round" stroke-linejoin="round"/>
<path id="Vector_3" d="M66.0078 14.4434V46.1523L58.0059 38.1504H26.5957C21.8463 38.1504 17.9961 34.3002 17.9961 29.5508V14.4434C17.9961 9.69398 21.8463 5.84374 26.5957 5.84374H57.4082C62.1576 5.84374 66.0078 9.69398 66.0078 14.4434Z" stroke="#28574E" stroke-width="2" stroke-miterlimit="10" stroke-linecap="round" stroke-linejoin="round"/>
<path id="Vector_4" d="M29.9997 23.8398C31.0418 23.8398 32.0401 22.9236 31.9919 21.8477C31.9436 20.7683 31.1165 19.8555 29.9997 19.8555C28.9577 19.8555 27.9593 20.7717 28.0075 21.8477C28.0559 22.927 28.8829 23.8398 29.9997 23.8398Z" fill="#28574E"/>
<path id="Vector_5" d="M42.0019 23.8398C43.044 23.8398 44.0423 22.9236 43.9941 21.8477C43.9458 20.7683 43.1187 19.8555 42.0019 19.8555C40.9599 19.8555 39.9615 20.7717 40.0097 21.8477C40.0581 22.927 40.8851 23.8398 42.0019 23.8398Z" fill="#28574E"/>
<path id="Vector_6" d="M54.0056 23.8398C55.0476 23.8398 56.046 22.9236 55.9978 21.8477C55.9494 20.7683 55.1224 19.8555 54.0056 19.8555C52.9635 19.8555 51.9652 20.7717 52.0134 21.8477C52.0617 22.927 52.8888 23.8398 54.0056 23.8398Z" fill="#28574E"/>
</g>
</g>
</svg>
