<svg width="48" height="48" viewBox="0 0 48 48" fill="none" xmlns="http://www.w3.org/2000/svg">
<g id="Shape=Original, Colored=True">
<path id="Vector" d="M26.4559 6.16799C22.1496 5.57563 17.7745 6.56132 14.1383 8.94307C10.5022 11.3248 7.85053 14.9418 6.67307 19.126C5.49562 23.3103 5.87186 27.7793 7.73232 31.7078C9.59278 35.6363 12.8118 38.759 16.795 40.4993C16.6873 39.1168 16.7862 37.7259 17.0884 36.3726C17.4213 34.8626 19.4208 26.5407 19.4208 26.5407C19.0226 25.6482 18.8237 24.6798 18.8377 23.7026C18.8377 21.03 20.38 19.0359 22.2985 19.0359C22.6432 19.0309 22.9849 19.1002 23.3004 19.239C23.6159 19.3778 23.8978 19.583 24.1269 19.8404C24.3561 20.0979 24.5271 20.4018 24.6284 20.7312C24.7296 21.0607 24.7587 21.4082 24.7137 21.7499C24.7137 23.3696 23.6735 25.8208 23.13 28.1209C23.0226 28.5427 23.0158 28.9838 23.1101 29.4088C23.2044 29.8337 23.3973 30.2305 23.6731 30.5673C23.9489 30.904 24.2999 31.1713 24.698 31.3475C25.096 31.5237 25.5298 31.6039 25.9645 31.5817C29.3804 31.5817 31.6696 27.2066 31.6696 22.0415C31.6696 18.0821 29.0475 15.1162 24.2134 15.1162C23.0569 15.0712 21.9033 15.2618 20.8226 15.6763C19.742 16.0909 18.7569 16.7207 17.9271 17.5276C17.0973 18.3345 16.4402 19.3016 15.9956 20.3702C15.551 21.4388 15.3283 22.5866 15.3408 23.744C15.2893 25.0278 15.7035 26.2869 16.5071 27.2894C16.6572 27.4015 16.7669 27.5594 16.8194 27.7392C16.872 27.9191 16.8647 28.1111 16.7986 28.2865C16.7158 28.6176 16.5071 29.4077 16.4243 29.6974C16.4071 29.7957 16.367 29.8885 16.3073 29.9685C16.2477 30.0484 16.1701 30.1133 16.0808 30.1577C15.9915 30.2022 15.893 30.2251 15.7932 30.2245C15.6935 30.224 15.5952 30.2 15.5064 30.1546C13.0156 29.1575 11.8422 26.4166 11.8422 23.2869C11.8422 18.1631 16.1327 12.0297 24.7173 12.0297C31.5491 12.0297 36.0915 17.0275 36.0915 22.3726C36.0915 29.4077 32.1736 34.697 26.3839 34.697C25.5186 34.7247 24.6602 34.5337 23.8883 34.1418C23.1163 33.7498 22.4557 33.1695 21.9674 32.4546C21.9674 32.4546 20.9272 36.6227 20.722 37.411C20.3032 38.7728 19.6852 40.0652 18.8881 41.2462C20.5492 41.7501 22.2751 42.0021 24.0101 41.9949C26.3741 41.9967 28.7153 41.5323 30.8997 40.6281C33.084 39.7239 35.0685 38.3977 36.7395 36.7255C38.4106 35.0533 39.7354 33.0678 40.6381 30.8829C41.5407 28.6979 42.0035 26.3564 42 23.9923C41.9977 19.646 40.423 15.4473 37.5666 12.1714C34.7102 8.89557 30.765 6.76381 26.4595 6.16979L26.4559 6.16799Z" fill="#BB0F23"/>
<path id="Vector_2" d="M17.0884 36.3724C16.7862 37.7258 16.6873 39.1167 16.795 40.4992C17.297 40.7215 18.2948 41.0731 18.8881 41.2461C19.6852 40.0651 20.3032 38.7727 20.722 37.4109C20.9272 36.6226 21.9674 32.4545 21.9674 32.4545C22.4557 33.1694 23.1163 33.7497 23.8883 34.1416C24.6603 34.5336 25.5186 34.7246 26.3839 34.6969C32.1736 34.6969 36.0915 29.4076 36.0915 22.3725C36.0915 17.0273 31.5491 12.0295 24.7174 12.0295C16.1327 12.0295 11.8422 18.163 11.8422 23.2867C11.8422 26.4164 13.0156 29.1574 15.5064 30.1544C15.5952 30.1999 15.6935 30.2239 15.7932 30.2244C15.893 30.225 15.9915 30.2021 16.0808 30.1576C16.1701 30.1131 16.2477 30.0483 16.3074 29.9684C16.367 29.8884 16.4071 29.7956 16.4243 29.6973C16.5071 29.4076 16.7158 28.6175 16.7986 28.2863C16.8647 28.111 16.8721 27.9189 16.8195 27.7391C16.7669 27.5593 16.6572 27.4014 16.5071 27.2893C15.7035 26.2868 15.2893 25.0276 15.3409 23.7439C15.3283 22.5865 15.5511 21.4387 15.9956 20.3701C16.4402 19.3015 17.0974 18.3343 17.9271 17.5275C18.7569 16.7206 19.742 16.0907 20.8227 15.6762C21.9033 15.2617 23.0569 15.0711 24.2134 15.116C29.0475 15.116 31.6697 18.082 31.6697 22.0413C31.6697 27.2065 29.3804 31.5816 25.9646 31.5816C25.5299 31.6038 25.096 31.5236 24.698 31.3474C24.3 31.1712 23.9489 30.9039 23.6731 30.5672C23.3973 30.2304 23.2045 29.8336 23.1101 29.4087C23.0158 28.9837 23.0226 28.5426 23.13 28.1208C23.6735 25.8207 24.7138 23.3695 24.7138 21.7498C24.7588 21.408 24.7296 21.0606 24.6284 20.7311C24.5271 20.4016 24.3561 20.0978 24.127 19.8403C23.8978 19.5828 23.6159 19.3777 23.3004 19.2389C22.9849 19.1001 22.6432 19.0308 22.2986 19.0358C20.3801 19.0358 18.8377 21.0299 18.8377 23.7025C18.8237 24.6796 19.0227 25.6481 19.4208 26.5406C19.4208 26.5406 17.4213 34.8625 17.0884 36.3724Z" fill="white"/>
</g>
</svg>
