<svg width="65" height="65" viewBox="0 0 65 65" fill="none" xmlns="http://www.w3.org/2000/svg">
<g id="Group">
<g id="Vector">
<mask id="path-1-inside-1_1_52" fill="white">
<path d="M60.0125 34.1244H58.1376V15.032C58.1376 14.7378 58.0208 14.4556 57.8127 14.2476C57.6047 14.0395 57.3225 13.9227 57.0283 13.9227H54.6875V11.0938C54.6875 10.7995 54.5706 10.5174 54.3626 10.3093C54.1545 10.1013 53.8723 9.98438 53.5781 9.98438H51.9584V1.10938C51.9584 0.81515 51.8416 0.532977 51.6335 0.324928C51.4255 0.11688 51.1433 0 50.8491 0C50.5548 0 50.2727 0.11688 50.0646 0.324928C49.8566 0.532977 49.7397 0.81515 49.7397 1.10938V9.98438H48.1311C47.8369 9.98438 47.5547 10.1013 47.3466 10.3093C47.1386 10.5174 47.0217 10.7995 47.0217 11.0938V13.9227H44.7031C44.4089 13.9227 44.1267 14.0395 43.9187 14.2476C43.7106 14.4556 43.5937 14.7378 43.5937 15.032V34.1244H38.4462V23.9292C38.44 22.7868 38.0894 21.6728 37.4403 20.7328C36.7911 19.7927 35.8736 19.0702 34.8075 18.6597L32.7441 17.8831C31.9792 17.5916 31.3206 17.0751 30.8552 16.4017C30.3898 15.7284 30.1394 14.9298 30.137 14.1112V10.9606H31.1466C31.4408 10.9606 31.723 10.8437 31.931 10.6357C32.1391 10.4276 32.2559 10.1455 32.2559 9.85125V1.10938C32.2559 0.81515 32.1391 0.532977 31.931 0.324928C31.723 0.11688 31.4408 0 31.1466 0H7.62781C7.33359 0 7.05141 0.11688 6.84337 0.324928C6.63532 0.532977 6.51844 0.81515 6.51844 1.10938V9.85125C6.51844 10.1455 6.63532 10.4276 6.84337 10.6357C7.05141 10.8437 7.33359 10.9606 7.62781 10.9606H8.63734V14.1112C8.63495 14.9298 8.38455 15.7284 7.91914 16.4017C7.45373 17.0751 6.79518 17.5916 6.03031 17.8831L3.96687 18.6597C2.90077 19.0702 1.98324 19.7927 1.3341 20.7328C0.684952 21.6728 0.334368 22.7868 0.328125 23.9292V58.0092C0.328125 59.6892 0.995511 61.3005 2.18347 62.4884C2.77168 63.0766 3.47 63.5432 4.23854 63.8616C5.00708 64.1799 5.83079 64.3438 6.66266 64.3438H60.0125C61.2482 64.3438 62.4334 63.8529 63.3072 62.979C64.181 62.1052 64.6719 60.9201 64.6719 59.6844V38.8281C64.6763 38.2129 64.5591 37.6029 64.327 37.0332C64.0949 36.4634 63.7526 35.9451 63.3197 35.508C62.8867 35.0709 62.3717 34.7237 61.8041 34.4862C61.2366 34.2488 60.6277 34.1258 60.0125 34.1244ZM8.73719 2.21875H30.0372V8.74187H8.73719V2.21875ZM49.2405 12.2031H52.4687V13.9227H49.2405V12.2031ZM45.8125 16.1414H55.9411V20.1352H53.2453C52.9511 20.1352 52.6689 20.252 52.4609 20.4601C52.2528 20.6681 52.1359 20.9503 52.1359 21.2445C52.1359 21.5388 52.2528 21.8209 52.4609 22.029C52.6689 22.237 52.9511 22.3539 53.2453 22.3539H55.9189V25.2494H50.9489C50.6547 25.2494 50.3725 25.3663 50.1645 25.5743C49.9564 25.7824 49.8395 26.0645 49.8395 26.3587C49.8395 26.653 49.9564 26.9351 50.1645 27.1432C50.3725 27.3512 50.6547 27.4681 50.9489 27.4681H55.9189V30.3636H53.2453C52.9511 30.3636 52.6689 30.4805 52.4609 30.6885C52.2528 30.8966 52.1359 31.1787 52.1359 31.473C52.1359 31.7672 52.2528 32.0494 52.4609 32.2574C52.6689 32.4655 52.9511 32.5823 53.2453 32.5823H55.9189V34.1244H45.8125V16.1414ZM14.9719 34.1244C14.3567 34.1258 13.7478 34.2488 13.1803 34.4862C12.6127 34.7237 12.0977 35.0709 11.6647 35.508C11.2318 35.9451 10.8894 36.4634 10.6574 37.0332C10.4253 37.6029 10.3081 38.2129 10.3125 38.8281V48.1691H2.54687V27.3905H36.2275V34.1244H14.9719ZM4.76562 20.7453L6.81797 19.9688C8.00365 19.5174 9.02447 18.7169 9.74548 17.673C10.4665 16.6291 10.8538 15.391 10.8561 14.1223V10.9606H27.9183V14.1112C27.9184 15.3818 28.3046 16.6224 29.0257 17.6684C29.7469 18.7145 30.769 19.5167 31.9564 19.9688L34.0198 20.7564C34.669 20.9994 35.2288 21.4341 35.6251 22.0028C36.0214 22.5715 36.2353 23.2472 36.2386 23.9403V25.1828H2.54687V23.9292C2.55013 23.2361 2.76409 22.5604 3.16038 21.9917C3.55666 21.423 4.11651 20.9883 4.76562 20.7453ZM2.54687 58.0092V50.3434H10.3125V59.6844C10.3142 60.5486 10.5604 61.3947 11.0225 62.125H6.66266C5.57108 62.125 4.52422 61.6914 3.75236 60.9195C2.9805 60.1477 2.54687 59.1008 2.54687 58.0092ZM62.4531 59.6844C62.4502 60.3308 62.1921 60.9499 61.7351 61.4069C61.278 61.864 60.6589 62.1221 60.0125 62.125H14.9719C14.3255 62.1221 13.7064 61.864 13.2493 61.4069C12.7922 60.9499 12.5342 60.3308 12.5312 59.6844V38.8281C12.5342 38.1817 12.7922 37.5626 13.2493 37.1056C13.7064 36.6485 14.3255 36.3904 14.9719 36.3875H60.0125C60.6589 36.3904 61.278 36.6485 61.7351 37.1056C62.1921 37.5626 62.4502 38.1817 62.4531 38.8281V59.6844Z"/>
</mask>
<path d="M60.0125 34.1244H58.1376V15.032C58.1376 14.7378 58.0208 14.4556 57.8127 14.2476C57.6047 14.0395 57.3225 13.9227 57.0283 13.9227H54.6875V11.0938C54.6875 10.7995 54.5706 10.5174 54.3626 10.3093C54.1545 10.1013 53.8723 9.98438 53.5781 9.98438H51.9584V1.10938C51.9584 0.81515 51.8416 0.532977 51.6335 0.324928C51.4255 0.11688 51.1433 0 50.8491 0C50.5548 0 50.2727 0.11688 50.0646 0.324928C49.8566 0.532977 49.7397 0.81515 49.7397 1.10938V9.98438H48.1311C47.8369 9.98438 47.5547 10.1013 47.3466 10.3093C47.1386 10.5174 47.0217 10.7995 47.0217 11.0938V13.9227H44.7031C44.4089 13.9227 44.1267 14.0395 43.9187 14.2476C43.7106 14.4556 43.5937 14.7378 43.5937 15.032V34.1244H38.4462V23.9292C38.44 22.7868 38.0894 21.6728 37.4403 20.7328C36.7911 19.7927 35.8736 19.0702 34.8075 18.6597L32.7441 17.8831C31.9792 17.5916 31.3206 17.0751 30.8552 16.4017C30.3898 15.7284 30.1394 14.9298 30.137 14.1112V10.9606H31.1466C31.4408 10.9606 31.723 10.8437 31.931 10.6357C32.1391 10.4276 32.2559 10.1455 32.2559 9.85125V1.10938C32.2559 0.81515 32.1391 0.532977 31.931 0.324928C31.723 0.11688 31.4408 0 31.1466 0H7.62781C7.33359 0 7.05141 0.11688 6.84337 0.324928C6.63532 0.532977 6.51844 0.81515 6.51844 1.10938V9.85125C6.51844 10.1455 6.63532 10.4276 6.84337 10.6357C7.05141 10.8437 7.33359 10.9606 7.62781 10.9606H8.63734V14.1112C8.63495 14.9298 8.38455 15.7284 7.91914 16.4017C7.45373 17.0751 6.79518 17.5916 6.03031 17.8831L3.96687 18.6597C2.90077 19.0702 1.98324 19.7927 1.3341 20.7328C0.684952 21.6728 0.334368 22.7868 0.328125 23.9292V58.0092C0.328125 59.6892 0.995511 61.3005 2.18347 62.4884C2.77168 63.0766 3.47 63.5432 4.23854 63.8616C5.00708 64.1799 5.83079 64.3438 6.66266 64.3438H60.0125C61.2482 64.3438 62.4334 63.8529 63.3072 62.979C64.181 62.1052 64.6719 60.9201 64.6719 59.6844V38.8281C64.6763 38.2129 64.5591 37.6029 64.327 37.0332C64.0949 36.4634 63.7526 35.9451 63.3197 35.508C62.8867 35.0709 62.3717 34.7237 61.8041 34.4862C61.2366 34.2488 60.6277 34.1258 60.0125 34.1244ZM8.73719 2.21875H30.0372V8.74187H8.73719V2.21875ZM49.2405 12.2031H52.4687V13.9227H49.2405V12.2031ZM45.8125 16.1414H55.9411V20.1352H53.2453C52.9511 20.1352 52.6689 20.252 52.4609 20.4601C52.2528 20.6681 52.1359 20.9503 52.1359 21.2445C52.1359 21.5388 52.2528 21.8209 52.4609 22.029C52.6689 22.237 52.9511 22.3539 53.2453 22.3539H55.9189V25.2494H50.9489C50.6547 25.2494 50.3725 25.3663 50.1645 25.5743C49.9564 25.7824 49.8395 26.0645 49.8395 26.3587C49.8395 26.653 49.9564 26.9351 50.1645 27.1432C50.3725 27.3512 50.6547 27.4681 50.9489 27.4681H55.9189V30.3636H53.2453C52.9511 30.3636 52.6689 30.4805 52.4609 30.6885C52.2528 30.8966 52.1359 31.1787 52.1359 31.473C52.1359 31.7672 52.2528 32.0494 52.4609 32.2574C52.6689 32.4655 52.9511 32.5823 53.2453 32.5823H55.9189V34.1244H45.8125V16.1414ZM14.9719 34.1244C14.3567 34.1258 13.7478 34.2488 13.1803 34.4862C12.6127 34.7237 12.0977 35.0709 11.6647 35.508C11.2318 35.9451 10.8894 36.4634 10.6574 37.0332C10.4253 37.6029 10.3081 38.2129 10.3125 38.8281V48.1691H2.54687V27.3905H36.2275V34.1244H14.9719ZM4.76562 20.7453L6.81797 19.9688C8.00365 19.5174 9.02447 18.7169 9.74548 17.673C10.4665 16.6291 10.8538 15.391 10.8561 14.1223V10.9606H27.9183V14.1112C27.9184 15.3818 28.3046 16.6224 29.0257 17.6684C29.7469 18.7145 30.769 19.5167 31.9564 19.9688L34.0198 20.7564C34.669 20.9994 35.2288 21.4341 35.6251 22.0028C36.0214 22.5715 36.2353 23.2472 36.2386 23.9403V25.1828H2.54687V23.9292C2.55013 23.2361 2.76409 22.5604 3.16038 21.9917C3.55666 21.423 4.11651 20.9883 4.76562 20.7453ZM2.54687 58.0092V50.3434H10.3125V59.6844C10.3142 60.5486 10.5604 61.3947 11.0225 62.125H6.66266C5.57108 62.125 4.52422 61.6914 3.75236 60.9195C2.9805 60.1477 2.54687 59.1008 2.54687 58.0092ZM62.4531 59.6844C62.4502 60.3308 62.1921 60.9499 61.7351 61.4069C61.278 61.864 60.6589 62.1221 60.0125 62.125H14.9719C14.3255 62.1221 13.7064 61.864 13.2493 61.4069C12.7922 60.9499 12.5342 60.3308 12.5312 59.6844V38.8281C12.5342 38.1817 12.7922 37.5626 13.2493 37.1056C13.7064 36.6485 14.3255 36.3904 14.9719 36.3875H60.0125C60.6589 36.3904 61.278 36.6485 61.7351 37.1056C62.1921 37.5626 62.4502 38.1817 62.4531 38.8281V59.6844Z" fill="#28574E" stroke="white" stroke-width="0.4" mask="url(#path-1-inside-1_1_52)"/>
</g>
<path id="Vector_2" d="M53.2159 50.9702C53.9568 50.4748 54.828 50.2104 55.7193 50.2104C56.9119 50.2103 58.0558 50.6834 58.9002 51.5257C59.7445 52.368 60.2203 53.5108 60.2232 54.7034C60.2253 55.5947 59.963 56.4665 59.4694 57.2086C58.9758 57.9507 58.2731 58.5296 57.4504 58.8722C56.6276 59.2148 55.7216 59.3055 54.8473 59.1329C53.9729 58.9604 53.1693 58.5323 52.5384 57.9028C51.9074 57.2734 51.4774 56.4709 51.3027 55.5969C51.128 54.723 51.2166 53.8168 51.5572 52.9932C51.8977 52.1696 52.475 51.4655 53.2159 50.9702ZM54.3386 56.7695C54.7473 57.0426 55.2277 57.1883 55.7193 57.1883C56.3784 57.1883 57.0105 56.9265 57.4765 56.4604C57.9426 55.9944 58.2044 55.3623 58.2044 54.7032C58.2044 54.2116 58.0587 53.7312 57.7856 53.3225C57.5125 52.9138 57.1244 52.5953 56.6703 52.4072C56.2162 52.2191 55.7165 52.1699 55.2344 52.2658C54.7523 52.3617 54.3095 52.5983 53.962 52.9459C53.6144 53.2934 53.3777 53.7363 53.2818 54.2183C53.186 54.7004 53.2352 55.2001 53.4233 55.6542C53.6114 56.1083 53.9299 56.4964 54.3386 56.7695Z" fill="#1E232F" stroke="white" stroke-width="0.2"/>
<path id="Vector_3" d="M41.087 50.9649C41.8293 50.4708 42.7016 50.2082 43.5933 50.2104C44.784 50.2132 45.9252 50.6875 46.7672 51.5295C47.6092 52.3715 48.0834 53.5127 48.0863 54.7034C48.0885 55.5951 47.8259 56.4674 47.3318 57.2097C46.8377 57.9521 46.1344 58.531 45.311 58.8733C44.4876 59.2155 43.5811 59.3056 42.7064 59.1322C41.8317 58.9587 41.0282 58.5295 40.3977 57.899C39.7671 57.2685 39.338 56.465 39.1645 55.5903C38.9911 54.7156 39.0812 53.8091 39.4234 52.9857C39.7657 52.1623 40.3446 51.459 41.087 50.9649ZM42.2102 56.7751C42.6204 57.0468 43.102 57.1906 43.594 57.1883C44.2511 57.1853 44.8802 56.9221 45.3438 56.4564C45.8073 55.9906 46.0676 55.3603 46.0676 54.7032C46.0676 54.2112 45.9215 53.7302 45.6479 53.3213C45.3743 52.9124 44.9855 52.5939 44.5308 52.4061C44.076 52.2184 43.5757 52.1698 43.0933 52.2667C42.6109 52.3635 42.1681 52.6013 41.821 52.95C41.474 53.2987 41.2382 53.7426 41.1436 54.2255C41.049 54.7083 41.0999 55.2083 41.2898 55.6622C41.4796 56.1161 41.8 56.5035 42.2102 56.7751Z" fill="#1E232F" stroke="white" stroke-width="0.2"/>
<path id="Vector_4" d="M31.3908 57.1883C30.8993 57.1883 30.4189 57.0425 30.0103 56.7695C29.6016 56.4964 29.2831 56.1083 29.095 55.6542C28.9069 55.2001 28.8577 54.7004 28.9536 54.2183C29.0495 53.7363 29.2862 53.2934 29.6337 52.9459C29.9813 52.5983 30.4241 52.3617 30.9062 52.2658C31.3882 52.1699 31.8879 52.2191 32.342 52.4072C32.7961 52.5953 33.1843 52.9138 33.4573 53.3225C33.7304 53.7311 33.8761 54.2115 33.8762 54.7029M31.3908 57.1883C31.7175 57.1898 32.0414 57.1266 32.3435 57.0022C32.6458 56.8779 32.9204 56.6948 33.1515 56.4637C33.3827 56.2326 33.5657 55.958 33.6901 55.6557C33.8144 55.3535 33.8777 55.0297 33.8762 54.7029M31.3908 57.1883C31.3907 57.1883 31.3906 57.1883 31.3905 57.1883L31.391 57.0883V57.1883C31.3909 57.1883 31.3908 57.1883 31.3908 57.1883ZM33.8762 54.7029C33.8762 54.7028 33.8762 54.7028 33.8762 54.7027L33.7762 54.7032H33.8762C33.8762 54.7031 33.8762 54.703 33.8762 54.7029ZM28.8876 50.9702C29.6285 50.4748 30.4998 50.2104 31.391 50.2104C32.5836 50.2103 33.7276 50.6834 34.5719 51.5257C35.4162 52.368 35.892 53.5108 35.8949 54.7034C35.8971 55.5947 35.6347 56.4665 35.1411 57.2086C34.6476 57.9507 33.9449 58.5296 33.1221 58.8722C32.2993 59.2148 31.3934 59.3055 30.519 59.1329C29.6446 58.9604 28.8411 58.5323 28.2101 57.9028C27.5791 57.2734 27.1491 56.4709 26.9745 55.5969C26.7998 54.723 26.8883 53.8168 27.2289 52.9932C27.5695 52.1696 28.1467 51.4655 28.8876 50.9702Z" fill="#1E232F" stroke="white" stroke-width="0.2"/>
<path id="Vector_5" d="M16.7626 50.9702C17.5035 50.4748 18.3748 50.2104 19.266 50.2104C20.4586 50.2103 21.6026 50.6834 22.4469 51.5257C23.2913 52.368 23.767 53.5108 23.7699 54.7034C23.7721 55.5947 23.5097 56.4665 23.0161 57.2086C22.5226 57.9507 21.8199 58.5296 20.9971 58.8722C20.1743 59.2148 19.2684 59.3055 18.394 59.1329C17.5196 58.9604 16.7161 58.5323 16.0851 57.9028C15.4541 57.2734 15.0241 56.4709 14.8495 55.5969C14.6748 54.723 14.7633 53.8168 15.1039 52.9932C15.4445 52.1696 16.0217 51.4655 16.7626 50.9702ZM17.8853 56.7695C18.294 57.0426 18.7745 57.1883 19.266 57.1883C19.9251 57.1883 20.5572 56.9265 21.0233 56.4604C21.4893 55.9944 21.7512 55.3623 21.7512 54.7032C21.7512 54.2117 21.6054 53.7312 21.3323 53.3225C21.0593 52.9138 20.6711 52.5953 20.217 52.4072C19.7629 52.2191 19.2632 52.1699 18.7812 52.2658C18.2991 52.3617 17.8563 52.5983 17.5087 52.9459C17.1612 53.2934 16.9245 53.7363 16.8286 54.2183C16.7327 54.7004 16.7819 55.2001 16.97 55.6542C17.1581 56.1083 17.4766 56.4964 17.8853 56.7695Z" fill="#1E232F" stroke="white" stroke-width="0.2"/>
<path id="Vector_6" d="M53.217 40.0199C53.9577 39.525 54.8285 39.2609 55.7193 39.2609C56.9138 39.2609 58.0594 39.7354 58.904 40.5801C59.7487 41.4247 60.2232 42.5703 60.2232 43.7648C60.2232 44.6556 59.959 45.5264 59.4641 46.267C58.9692 47.0077 58.2658 47.585 57.4428 47.9259C56.6199 48.2668 55.7143 48.3559 54.8406 48.1822C53.9669 48.0084 53.1644 47.5794 52.5345 46.9495C51.9046 46.3197 51.4757 45.5171 51.3019 44.6435C51.1281 43.7698 51.2173 42.8642 51.5582 42.0412C51.8991 41.2182 52.4764 40.5148 53.217 40.0199ZM54.3386 45.8311C54.7473 46.1042 55.2277 46.2499 55.7193 46.2499C56.0456 46.2499 56.3688 46.1857 56.6703 46.0608C56.9718 45.9359 57.2458 45.7528 57.4765 45.5221C57.7073 45.2913 57.8904 45.0173 58.0152 44.7158C58.1401 44.4143 58.2044 44.0912 58.2044 43.7648C58.2044 43.2733 58.0587 42.7928 57.7856 42.3841C57.5125 41.9754 57.1244 41.6569 56.6703 41.4688C56.2162 41.2807 55.7165 41.2315 55.2344 41.3274C54.7524 41.4233 54.3095 41.66 53.962 42.0075C53.6144 42.3551 53.3778 42.7979 53.2819 43.28C53.186 43.762 53.2352 44.2617 53.4233 44.7158C53.6114 45.1699 53.9299 45.5581 54.3386 45.8311Z" fill="#1E232F" stroke="white" stroke-width="0.2"/>
<path id="Vector_7" d="M41.0881 40.0147C41.8302 39.5211 42.702 39.2588 43.5933 39.2609C44.7859 39.2638 45.9287 39.7396 46.771 40.5839C47.6133 41.4282 48.0863 42.5722 48.0863 43.7648C48.0863 44.6561 47.8219 45.5273 47.3265 46.2682C46.8311 47.0091 46.1271 47.5863 45.3035 47.9269C44.4799 48.2675 43.5737 48.356 42.6998 48.1814C41.8258 48.0067 41.0233 47.5767 40.3938 46.9457C39.7644 46.3147 39.3363 45.5112 39.1637 44.6368C38.9912 43.7624 39.0819 42.8565 39.4245 42.0337C39.767 41.2109 40.346 40.5083 41.0881 40.0147ZM42.2102 45.8368C42.6204 46.1084 43.102 46.2523 43.594 46.25C44.2511 46.2469 44.8802 45.9837 45.3438 45.518C45.8073 45.0523 46.0676 44.4219 46.0676 43.7648C46.0676 43.2728 45.9215 42.7919 45.6479 42.3829C45.3744 41.974 44.9855 41.6555 44.5308 41.4677C44.076 41.28 43.5757 41.2315 43.0933 41.3283C42.6109 41.4251 42.1681 41.663 41.8211 42.0117C41.474 42.3604 41.2382 42.8043 41.1436 43.2871C41.049 43.7699 41.0999 44.27 41.2898 44.7239C41.4796 45.1778 41.8 45.5651 42.2102 45.8368Z" fill="#1E232F" stroke="white" stroke-width="0.2"/>
<path id="Vector_8" d="M28.8888 40.0199C29.6294 39.525 30.5002 39.2609 31.391 39.2609C32.5855 39.2609 33.7311 39.7354 34.5758 40.5801C35.4204 41.4247 35.8949 42.5703 35.8949 43.7648C35.8949 44.6556 35.6308 45.5264 35.1359 46.267C34.641 47.0077 33.9376 47.585 33.1146 47.9259C32.2916 48.2668 31.386 48.3559 30.5123 48.1822C29.6387 48.0084 28.8362 47.5794 28.2063 46.9495C27.5764 46.3197 27.1474 45.5171 26.9737 44.6435C26.7999 43.7698 26.8891 42.8642 27.23 42.0412C27.5708 41.2182 28.1481 40.5148 28.8888 40.0199ZM30.0103 45.8311C30.419 46.1042 30.8995 46.2499 31.391 46.2499C31.7174 46.2499 32.0405 46.1857 32.342 46.0608C32.6436 45.9359 32.9175 45.7528 33.1483 45.5221C33.3791 45.2913 33.5621 45.0173 33.687 44.7158C33.8119 44.4143 33.8762 44.0912 33.8762 43.7648C33.8762 43.2733 33.7304 42.7928 33.4573 42.3841C33.1843 41.9754 32.7961 41.6569 32.342 41.4688C31.8879 41.2807 31.3883 41.2315 30.9062 41.3274C30.4241 41.4233 29.9813 41.66 29.6337 42.0075C29.2862 42.3551 29.0495 42.7979 28.9536 43.28C28.8577 43.762 28.9069 44.2617 29.095 44.7158C29.2831 45.1699 29.6017 45.5581 30.0103 45.8311Z" fill="#1E232F" stroke="white" stroke-width="0.2"/>
<path id="Vector_9" d="M19.266 46.25L19.2665 46.2499C19.9245 46.2469 20.5548 45.9842 21.0201 45.5188C21.4854 45.0535 21.7481 44.4233 21.7512 43.7653V43.7648C21.7512 43.2733 21.6054 42.7928 21.3323 42.3841C21.0593 41.9754 20.6711 41.6569 20.217 41.4688C19.7629 41.2807 19.2633 41.2315 18.7812 41.3274C18.2991 41.4233 17.8563 41.66 17.5087 42.0075C17.1612 42.3551 16.9245 42.7979 16.8286 43.28C16.7327 43.762 16.7819 44.2617 16.97 44.7158C17.1581 45.1699 17.4767 45.5581 17.8853 45.8311C18.294 46.1042 18.7745 46.2499 19.266 46.25ZM16.7638 40.0199C17.5044 39.525 18.3752 39.2609 19.266 39.2609C20.4605 39.2609 21.6061 39.7354 22.4508 40.5801C23.2954 41.4247 23.7699 42.5703 23.7699 43.7648C23.7699 44.6556 23.5058 45.5264 23.0109 46.267C22.516 47.0077 21.8126 47.585 20.9896 47.9259C20.1666 48.2668 19.261 48.3559 18.3873 48.1822C17.5137 48.0084 16.7112 47.5794 16.0813 46.9495C15.4514 46.3197 15.0224 45.5171 14.8487 44.6435C14.6749 43.7698 14.7641 42.8642 15.105 42.0412C15.4458 41.2182 16.0231 40.5148 16.7638 40.0199Z" fill="#1E232F" stroke="white" stroke-width="0.2"/>
</g>
</svg>
