<svg width="68" height="68" viewBox="0 0 68 68" fill="none" xmlns="http://www.w3.org/2000/svg">
<g id="Frame" clip-path="url(#clip0_1_71)">
<path id="Vector" d="M34.012 0.00708044C20.4078 0.00509752 8.11255 8.11425 2.75796 20.6204L2.33418 20.7609L2.49848 21.2538C-4.55165 38.642 3.82887 58.4532 21.2171 65.5034C25.2783 67.15 29.6196 67.9953 34.002 67.9929C52.7757 67.9958 67.9972 52.7788 68 34.0051C68.0028 15.2314 52.7859 0.00977155 34.012 0.00708044ZM60.6757 51.1387L58.9301 49.3943V45.331C58.9321 45.1556 58.8933 44.9823 58.8168 44.8245L54.3977 35.9988V31.7338C54.3977 31.3551 54.2086 31.0013 53.8935 30.7911L50.4942 28.5249C50.2278 28.347 49.8985 28.2902 49.5877 28.3685L45.4247 29.4087L38.4324 26.4082L37.4704 19.6686L40.1366 17.0035H45.8598L47.7861 19.8986C47.96 20.1589 48.2341 20.3358 48.543 20.387L55.3416 21.5201C55.5237 21.5507 55.7104 21.5358 55.8855 21.477L62.147 19.3898C67.3988 29.468 66.837 41.5895 60.6757 51.1387ZM56.0022 11.1726L54.1598 12.4009L49.0234 11.3732L45.691 10.2639C45.4871 10.1946 45.2675 10.1858 45.0587 10.2389L40.8459 11.2916L38.9989 10.6763L40.3677 7.93876H44.1999C44.3756 7.9389 44.549 7.89825 44.7064 7.81979L48.6269 5.85953C51.3268 7.26882 53.8105 9.05798 56.0022 11.1726ZM21.5912 4.80348L24.3106 6.61644C24.4443 6.70538 24.5953 6.76487 24.7536 6.79093L30.2446 7.70648L29.7087 9.30981L26.8476 10.265C26.5914 10.3503 26.374 10.5242 26.2346 10.7556L22.9803 16.1786L17.7534 19.3151L10.0483 20.4153C9.48983 20.4942 9.07455 20.9719 9.07384 21.5359V24.9352C9.07384 25.2358 9.19338 25.5239 9.40584 25.7363L11.34 27.6705V29.6172L6.62635 26.474L4.91651 21.3444C8.16963 13.9113 14.1321 7.99655 21.5912 4.80348ZM18.3652 41.9543L13.2436 40.9289L11.34 37.1319V34.4691L15.562 30.2472L17.1245 33.3734C17.3164 33.7575 17.7092 34.0001 18.1386 34H25.429L28.4985 39.1159C28.7033 39.4569 29.0719 39.6653 29.4696 39.6655H32.6196L31.8264 43.6393L27.5365 47.9292C27.3236 48.1415 27.2038 48.4296 27.2034 48.7303V51.563L23.1242 54.6224C22.839 54.8364 22.671 55.1722 22.671 55.5288V59.6216L21.2614 59.1548L19.2717 54.1782V43.0648C19.2719 42.5263 18.8928 42.062 18.3652 41.9543ZM14.9591 59.373C4.2756 51.3579 -0.242485 37.5092 3.65877 24.7358L4.60037 27.5595C4.67969 27.7984 4.83634 28.0042 5.04568 28.1441L10.6942 31.9094L9.40584 33.1989C9.19338 33.4114 9.07384 33.6994 9.07384 34V37.3993C9.0737 37.5751 9.11435 37.7484 9.19282 37.9058L11.459 42.4382C11.6159 42.7512 11.9087 42.9741 12.2522 43.0421L17.0112 43.9928V54.3958C17.011 54.5397 17.0384 54.6824 17.0916 54.8161L19.3578 60.4816C19.4819 60.7911 19.736 61.0303 20.0524 61.1354L23.4517 62.2685C23.5653 62.307 23.6843 62.3269 23.8041 62.3274C24.4299 62.3274 24.9372 61.8201 24.9372 61.1943V56.0954L29.0164 53.036C29.3016 52.822 29.4696 52.4862 29.4696 52.1296V49.1994L33.67 44.999C33.8279 44.8408 33.9356 44.6392 33.9793 44.42L35.1124 38.7545C35.2351 38.1408 34.8371 37.5439 34.2234 37.4212C34.1504 37.4067 34.0763 37.3993 34.002 37.3993H30.1109L27.0414 32.2834C26.8366 31.9424 26.468 31.7339 26.0703 31.7338H18.8389L16.8922 27.828C16.7292 27.502 16.4193 27.2742 16.0594 27.2161C15.6996 27.154 15.3324 27.2727 15.077 27.5334L13.6062 28.9985V27.2014C13.6062 26.9009 13.4867 26.6128 13.2742 26.4003L11.34 24.4661V22.5183L18.2995 21.5246C18.4489 21.5029 18.5927 21.4517 18.7222 21.3739L24.3877 17.9746C24.5466 17.8791 24.6797 17.746 24.7752 17.5871L27.9592 12.2808L30.9607 11.2791C31.2997 11.1679 31.5657 10.9021 31.6769 10.563L32.81 7.16372C33.0063 6.56955 32.6838 5.92865 32.0896 5.73234C32.0348 5.71421 31.9786 5.70033 31.9216 5.6907L25.3632 4.59726L24.2109 3.82902C31.3413 1.50815 39.0642 1.79539 46.0026 4.63918L43.9324 5.67257H39.6675C39.2359 5.67016 38.8406 5.91321 38.6477 6.29917L36.3815 10.8316C36.1023 11.3916 36.3299 12.072 36.89 12.3512C36.9377 12.375 36.987 12.3954 37.0375 12.4122L40.4368 13.5453C40.6408 13.6146 40.8603 13.6234 41.0691 13.5703L45.282 12.5176L48.3685 13.5453C48.4127 13.5612 48.4582 13.5734 48.5045 13.5816L54.17 14.7147C54.4646 14.7747 54.7711 14.7144 55.0209 14.547L57.5999 12.8269C58.8691 14.2406 60.0097 15.7646 61.0082 17.3809L55.4334 19.2391L49.3974 18.2329L47.4031 15.2416C47.1941 14.9281 46.8428 14.7392 46.466 14.7373H39.6675C39.3669 14.7373 39.0788 14.8569 38.8664 15.0693L35.4671 18.4686C35.2147 18.7209 35.0958 19.0774 35.1464 19.4306L36.2795 27.3623C36.3366 27.7545 36.5944 28.0883 36.9594 28.2427L44.891 31.642C45.1182 31.7405 45.3718 31.7607 45.6117 31.6998L49.658 30.688L52.1315 32.34V36.2662C52.1296 36.4415 52.1684 36.6149 52.2448 36.7727L56.6639 45.5984V49.8634C56.6639 50.1639 56.7835 50.452 56.9959 50.6645L59.3664 53.036C48.8536 67.0486 28.9717 69.8859 14.9591 59.373Z" fill="#28574E"/>
</g>
<defs>
<clipPath id="clip0_1_71">
<rect width="68" height="68" fill="white"/>
</clipPath>
</defs>
</svg>
